<mxfile host="65bd71144e">
    <diagram name="Page-1" id="mMkHIKbHVZO8Ba1Qybrs">
        <mxGraphModel dx="1086" dy="751" grid="1" gridSize="10" guides="1" tooltips="1" connect="1" arrows="1" fold="1" page="1" pageScale="1" pageWidth="850" pageHeight="1100" background="#ffffff" math="0" shadow="0">
            <root>
                <mxCell id="p07owsOrMPpUZU9oq9AL-0"/>
                <mxCell id="p07owsOrMPpUZU9oq9AL-1" parent="p07owsOrMPpUZU9oq9AL-0"/>
                <mxCell id="p07owsOrMPpUZU9oq9AL-2" value="http://ics2o.mths.ca" style="swimlane;whiteSpace=wrap;html=1;strokeColor=#000000;strokeWidth=1;gradientColor=none;perimeterSpacing=0;glass=0;labelBackgroundColor=none;labelBorderColor=none;" vertex="1" parent="p07owsOrMPpUZU9oq9AL-1">
                    <mxGeometry x="40" y="40" width="760" height="610" as="geometry"/>
                </mxCell>
                <mxCell id="p07owsOrMPpUZU9oq9AL-3" value="" style="whiteSpace=wrap;html=1;glass=0;labelBackgroundColor=none;labelBorderColor=none;fontSize=22;fillColor=#38610f;strokeColor=#2D7600;fontColor=#ffffff;" vertex="1" parent="p07owsOrMPpUZU9oq9AL-2">
                    <mxGeometry y="20" width="760" height="590" as="geometry"/>
                </mxCell>
                <mxCell id="p07owsOrMPpUZU9oq9AL-4" value="" style="whiteSpace=wrap;html=1;fontSize=22;fillColor=#60a917;strokeColor=#2D7600;fontColor=#ffffff;" vertex="1" parent="p07owsOrMPpUZU9oq9AL-2">
                    <mxGeometry y="20" width="760" height="50" as="geometry"/>
                </mxCell>
                <mxCell id="p07owsOrMPpUZU9oq9AL-5" value="" style="whiteSpace=wrap;html=1;glass=0;labelBackgroundColor=none;labelBorderColor=none;fontSize=22;fontColor=#000000;fillColor=#6D6F6B;gradientColor=none;" vertex="1" parent="p07owsOrMPpUZU9oq9AL-2">
                    <mxGeometry x="20" y="142.5" width="150" height="25" as="geometry"/>
                </mxCell>
                <mxCell id="p07owsOrMPpUZU9oq9AL-6" value="&lt;span style=&quot;font-size: 24px;&quot;&gt;Enter an age to check which movies you can watch.&lt;/span&gt;" style="text;html=1;align=center;verticalAlign=middle;resizable=0;points=[];autosize=1;fontSize=26;fontColor=#FFFFFF;" vertex="1" parent="p07owsOrMPpUZU9oq9AL-2">
                    <mxGeometry x="20" y="70" width="570" height="40" as="geometry"/>
                </mxCell>
                <mxCell id="p07owsOrMPpUZU9oq9AL-7" value="&lt;span style=&quot;font-size: 17px;&quot;&gt;Age&lt;/span&gt;" style="text;align=center;html=1;verticalAlign=middle;whiteSpace=wrap;rounded=0;fontColor=#FFFFFF;" vertex="1" parent="p07owsOrMPpUZU9oq9AL-2">
                    <mxGeometry x="20" y="112.5" width="110" height="30" as="geometry"/>
                </mxCell>
                <mxCell id="p07owsOrMPpUZU9oq9AL-8" value="Check Age" style="whiteSpace=wrap;html=1;fillColor=#999999;" vertex="1" parent="p07owsOrMPpUZU9oq9AL-2">
                    <mxGeometry x="35" y="190" width="120" height="30" as="geometry"/>
                </mxCell>
                <mxCell id="p07owsOrMPpUZU9oq9AL-9" value="You have not entered an age yet." style="text;align=left;html=1;verticalAlign=middle;whiteSpace=wrap;rounded=0;fontSize=18;fontColor=#FFFFFF;" vertex="1" parent="p07owsOrMPpUZU9oq9AL-2">
                    <mxGeometry x="20" y="240" width="305" height="30" as="geometry"/>
                </mxCell>
                <mxCell id="p07owsOrMPpUZU9oq9AL-10" value="&lt;font&gt;Movie Age Checker&lt;/font&gt;" style="text;html=1;align=center;verticalAlign=middle;resizable=0;points=[];autosize=1;fontSize=30;fontColor=#FFFFFF;" vertex="1" parent="p07owsOrMPpUZU9oq9AL-2">
                    <mxGeometry x="245" y="20" width="280" height="50" as="geometry"/>
                </mxCell>
            </root>
        </mxGraphModel>
    </diagram>
    <diagram name="Page-2" id="eJY14A91-WxhE7pXBxpC">
        <mxGraphModel dx="1086" dy="751" grid="1" gridSize="10" guides="1" tooltips="1" connect="1" arrows="1" fold="1" page="1" pageScale="1" pageWidth="850" pageHeight="1100" background="#ffffff" math="0" shadow="0">
            <root>
                <mxCell id="_PhmnnLv1qC9xig_SnHr-0"/>
                <mxCell id="_PhmnnLv1qC9xig_SnHr-1" parent="_PhmnnLv1qC9xig_SnHr-0"/>
                <mxCell id="_PhmnnLv1qC9xig_SnHr-2" value="http://ics2o.mths.ca" style="swimlane;whiteSpace=wrap;html=1;strokeColor=#000000;strokeWidth=1;gradientColor=none;perimeterSpacing=0;glass=0;labelBackgroundColor=none;labelBorderColor=none;" vertex="1" parent="_PhmnnLv1qC9xig_SnHr-1">
                    <mxGeometry x="40" y="40" width="760" height="610" as="geometry"/>
                </mxCell>
                <mxCell id="_PhmnnLv1qC9xig_SnHr-3" value="" style="whiteSpace=wrap;html=1;glass=0;labelBackgroundColor=none;labelBorderColor=none;fontSize=22;fillColor=#38610f;strokeColor=#2D7600;fontColor=#ffffff;" vertex="1" parent="_PhmnnLv1qC9xig_SnHr-2">
                    <mxGeometry y="20" width="760" height="590" as="geometry"/>
                </mxCell>
                <mxCell id="_PhmnnLv1qC9xig_SnHr-4" value="" style="whiteSpace=wrap;html=1;fontSize=22;fillColor=#60a917;strokeColor=#2D7600;fontColor=#ffffff;" vertex="1" parent="_PhmnnLv1qC9xig_SnHr-2">
                    <mxGeometry y="20" width="760" height="50" as="geometry"/>
                </mxCell>
                <mxCell id="_PhmnnLv1qC9xig_SnHr-5" value="&lt;font color=&quot;#ffffff&quot;&gt;13&lt;/font&gt;" style="whiteSpace=wrap;html=1;glass=0;labelBackgroundColor=none;labelBorderColor=none;fontSize=22;fontColor=#000000;fillColor=#6D6F6B;gradientColor=none;" vertex="1" parent="_PhmnnLv1qC9xig_SnHr-2">
                    <mxGeometry x="20" y="142.5" width="150" height="25" as="geometry"/>
                </mxCell>
                <mxCell id="_PhmnnLv1qC9xig_SnHr-6" value="&lt;span style=&quot;font-size: 24px;&quot;&gt;Enter an age to check which movies you can watch.&lt;/span&gt;" style="text;html=1;align=center;verticalAlign=middle;resizable=0;points=[];autosize=1;fontSize=26;fontColor=#FFFFFF;" vertex="1" parent="_PhmnnLv1qC9xig_SnHr-2">
                    <mxGeometry x="20" y="70" width="570" height="40" as="geometry"/>
                </mxCell>
                <mxCell id="_PhmnnLv1qC9xig_SnHr-7" value="&lt;span style=&quot;font-size: 17px;&quot;&gt;Age&lt;/span&gt;" style="text;align=center;html=1;verticalAlign=middle;whiteSpace=wrap;rounded=0;fontColor=#FFFFFF;" vertex="1" parent="_PhmnnLv1qC9xig_SnHr-2">
                    <mxGeometry x="20" y="112.5" width="110" height="30" as="geometry"/>
                </mxCell>
                <mxCell id="_PhmnnLv1qC9xig_SnHr-8" value="Check Age" style="whiteSpace=wrap;html=1;fillColor=#999999;" vertex="1" parent="_PhmnnLv1qC9xig_SnHr-2">
                    <mxGeometry x="35" y="190" width="120" height="30" as="geometry"/>
                </mxCell>
                <mxCell id="_PhmnnLv1qC9xig_SnHr-9" value="You can watch PG-13 movies." style="text;align=left;html=1;verticalAlign=middle;whiteSpace=wrap;rounded=0;fontSize=18;fontColor=#FFFFFF;" vertex="1" parent="_PhmnnLv1qC9xig_SnHr-2">
                    <mxGeometry x="20" y="240" width="305" height="30" as="geometry"/>
                </mxCell>
                <mxCell id="_PhmnnLv1qC9xig_SnHr-10" value="&lt;font&gt;Movie Age Checker&lt;/font&gt;" style="text;html=1;align=center;verticalAlign=middle;resizable=0;points=[];autosize=1;fontSize=30;fontColor=#FFFFFF;" vertex="1" parent="_PhmnnLv1qC9xig_SnHr-2">
                    <mxGeometry x="245" y="20" width="280" height="50" as="geometry"/>
                </mxCell>
            </root>
        </mxGraphModel>
    </diagram>
</mxfile>